<svg id="Capa_1" enable-background="new 0 0 512 512" height="24" viewBox="0 0 512 512" width="24" xmlns="http://www.w3.org/2000/svg"><g><path d="m421 360.993-60.939.002c-15.544 24.203-36.264 44.689-60.619 60.013h121.558v44.985l91-74.985-91-75z" style="fill:#dddddd" /><path d="m197.139 420.951c90.593-.619 163.861-74.202 163.861-164.944 0-86.061-65.914-156.656-150-164.244v-45.756l-90 75 90 74.985v-43.469c50.75 7.357 90 50.729 90 103.484 0 57.891-47.109 105-105 105h-196v60h197.207c-.03-.018-.039-.038-.068-.056z" style="fill:#dddddd" /><path d="m122.749 331.007c-19.532-19.08-31.749-45.608-31.749-75 0-34.863 17.267-65.596 43.504-84.703l-47.137-39.276c-34.484 30.242-56.367 74.51-56.367 123.979 0 27.105 6.96 52.44 18.541 75z" style="fill:#dddddd" /></g></svg>