<?xml version="1.0" encoding="UTF-8" standalone="no"?>
<!-- Generator: Adobe Illustrator 19.0.0, SVG Export Plug-In . SVG Version: 6.00 Build 0)  -->

<svg
   xmlns:dc="http://purl.org/dc/elements/1.1/"
   xmlns:cc="http://creativecommons.org/ns#"
   xmlns:rdf="http://www.w3.org/1999/02/22-rdf-syntax-ns#"
   xmlns:svg="http://www.w3.org/2000/svg"
   xmlns="http://www.w3.org/2000/svg"
   xmlns:sodipodi="http://sodipodi.sourceforge.net/DTD/sodipodi-0.dtd"
   xmlns:inkscape="http://www.inkscape.org/namespaces/inkscape"
   version="1.1"
   id="Layer_1"
   x="0px"
   y="0px"
   viewBox="0 0 24 24"
   xml:space="preserve"
   sodipodi:docname="bank.svg"
   width="24"
   height="24"
   inkscape:version="0.92.4 (5da689c313, 2019-01-14)"><metadata
   id="metadata56"><rdf:RDF><cc:Work
       rdf:about=""><dc:format>image/svg+xml</dc:format><dc:type
         rdf:resource="http://purl.org/dc/dcmitype/StillImage" /><dc:title></dc:title></cc:Work></rdf:RDF></metadata><defs
   id="defs54" /><sodipodi:namedview
   pagecolor="#ffffff"
   bordercolor="#666666"
   borderopacity="1"
   objecttolerance="10"
   gridtolerance="10"
   guidetolerance="10"
   inkscape:pageopacity="0"
   inkscape:pageshadow="2"
   inkscape:window-width="1920"
   inkscape:window-height="1017"
   id="namedview52"
   showgrid="false"
   inkscape:zoom="24.98444"
   inkscape:cx="30.167336"
   inkscape:cy="7.9825471"
   inkscape:window-x="1358"
   inkscape:window-y="522"
   inkscape:window-maximized="1"
   inkscape:current-layer="Layer_1" />
<style
   type="text/css"
   id="style47">
	.st0{fill:#23dddd;}
</style>
<g
   id="XMLID_2_"
   style="fill:#cccccc"
   transform="matrix(0.32667877,0,0,0.35019455,-3.6642469,-4.8093385)">
	<path
   id="XMLID_7_"
   class="st0"
   d="m 48,22.3 27.5,11 V 37 h -3.7 c 0,0.5 -0.2,0.9 -0.6,1.3 -0.4,0.4 -0.9,0.5 -1.4,0.5 H 26.1 c -0.5,0 -1,-0.2 -1.4,-0.5 C 24.3,38 24.1,37.5 24.1,37 H 20.4 V 33.3 Z M 27.8,40.7 h 7.3 v 22 h 3.7 v -22 h 7.3 v 22 h 3.7 v -22 h 7.3 v 22 h 3.7 v -22 h 7.3 v 22 h 1.7 c 0.5,0 1,0.2 1.4,0.5 0.4,0.3 0.6,0.8 0.6,1.3 v 1.8 H 24.2 v -1.8 c 0,-0.5 0.2,-0.9 0.6,-1.3 0.4,-0.4 0.9,-0.5 1.4,-0.5 h 1.7 v -22 z m 45.7,27.5 c 0.5,0 1,0.2 1.4,0.5 0.4,0.4 0.6,0.8 0.6,1.3 v 3.7 h -55 V 70 c 0,-0.5 0.2,-0.9 0.6,-1.3 0.4,-0.4 0.9,-0.5 1.4,-0.5 z"
   style="fill:#cccccc"
   inkscape:connector-curvature="0" />
</g>
</svg>