<?xml version="1.0" ?>
<svg xmlns="http://www.w3.org/2000/svg" xmlns:xlink="http://www.w3.org/1999/xlink" xmlns:svgjs="http://svgjs.com/svgjs" version="1.1" width="24" height="24" x="0" y="0" viewBox="0 0 512 512" style="enable-background:new 0 0 24 24" xml:space="preserve" class=""><g xmlns="http://www.w3.org/2000/svg"><path d="m239 187h34v106h-34z" fill="#dddddd" data-original="#000000" style="" class="" /><path d="m303 293h34v-138h-34z" fill="#dddddd" data-original="#000000" style="" class="" /><path d="m367 293h34v-170h-34z" fill="#dddddd" data-original="#000000" style="" class="" /><path d="m467 29h-422c-24.813 0-45 20.187-45 45v268c0 24.813 20.187 45 45 45h422c24.813 0 45-20.187 45-45v-268c0-24.813-20.187-45-45-45zm-340 275.871v3.139c0 8.284-6.716 15-15 15s-15-6.716-15-15v-1.443c-6.916-1.211-13.231-3.797-21.205-9.016-6.932-4.537-8.873-13.834-4.336-20.766 4.538-6.933 13.833-8.872 20.766-4.336 7.3 4.778 9.673 5.145 19.675 5.081 9.648-.063 13.493-7.633 14.244-12.097.675-4.01-.081-9.342-7.517-11.973-11.387-4.03-24.864-9.171-34.272-16.547-20.623-16.169-14.363-53.061 12.645-62.883v-2.17c0-8.284 6.716-15 15-15s15 6.716 15 15v1.234c9.938 2.929 16.888 9.116 16.888 9.116 6.053 5.604 6.451 15.05.872 21.139-5.586 6.096-15.047 6.519-21.156.956-3.881-2.874-9.747-4.109-15.982-2.22-4.024 1.213-5.098 5.359-5.332 6.601-.486 2.587.206 4.329.576 4.619 6.116 4.797 18.303 9.233 25.769 11.874 39.534 13.985 34.7 66.56-1.635 79.692zm304 3.129c0 8.284-6.716 15-15 15-38.431 0-153.777 0-192 0-8.284 0-15-6.716-15-15v-136c0-8.284 6.716-15 15-15h49v-17c0-8.284 6.716-15 15-15h49v-17c0-8.284 6.716-15 15-15h64c8.284 0 15 6.716 15 15z" fill="#dddddd" data-original="#000000" style="" class="" /><path d="m416 453h-97v-36c-39.553 0-88.325 0-126 0v36h-97c-8.284 0-15 6.716-15 15s6.716 15 15 15h320c8.284 0 15-6.716 15-15s-6.716-15-15-15z" fill="#dddddd" data-original="#000000" style="" class="" /></g></svg>
