<?xml version="1.0" encoding="UTF-8" standalone="no"?>
<svg
   xmlns:dc="http://purl.org/dc/elements/1.1/"
   xmlns:cc="http://creativecommons.org/ns#"
   xmlns:rdf="http://www.w3.org/1999/02/22-rdf-syntax-ns#"
   xmlns:svg="http://www.w3.org/2000/svg"
   xmlns="http://www.w3.org/2000/svg"
   xmlns:sodipodi="http://sodipodi.sourceforge.net/DTD/sodipodi-0.dtd"
   xmlns:inkscape="http://www.inkscape.org/namespaces/inkscape"
   viewBox="0 0 24 24"
   version="1.1"
   id="svg22"
   sodipodi:docname="plugin.svg"
   inkscape:version="0.92.4 (5da689c313, 2019-01-14)"
   width="24"
   height="24">
  <metadata
     id="metadata28">
    <rdf:RDF>
      <cc:Work
         rdf:about="">
        <dc:format>image/svg+xml</dc:format>
        <dc:type
           rdf:resource="http://purl.org/dc/dcmitype/StillImage" />
        <dc:title></dc:title>
      </cc:Work>
    </rdf:RDF>
  </metadata>
  <defs
     id="defs26" />
  <sodipodi:namedview
     pagecolor="#ffffff"
     bordercolor="#666666"
     borderopacity="1"
     objecttolerance="10"
     gridtolerance="10"
     guidetolerance="10"
     inkscape:pageopacity="0"
     inkscape:pageshadow="2"
     inkscape:window-width="1920"
     inkscape:window-height="1017"
     id="namedview24"
     showgrid="false"
     inkscape:zoom="17.666667"
     inkscape:cx="1.1037736"
     inkscape:cy="10.803226"
     inkscape:window-x="1358"
     inkscape:window-y="522"
     inkscape:window-maximized="1"
     inkscape:current-layer="svg22"
     inkscape:pagecheckerboard="false" />
  <path
     d="M 18.854697,11.571496 H 17.569183 V 8.1420645 c 0,-0.942989 -0.771033,-1.7140213 -1.714022,-1.7140213 H 12.42712 V 5.1425269 C 12.42712,3.9429891 11.484129,3 10.284591,3 9.085054,3 8.1420642,3.9429891 8.1420642,5.1425269 V 6.4280432 H 4.7140213 C 3.7710323,6.4280432 3,7.1990755 3,8.1420645 v 3.2574735 h 1.2855161 c 1.285516,0 2.3144835,1.028968 2.3144835,2.314483 0,1.285516 -1.0289675,2.314484 -2.3144835,2.314484 H 3 v 3.257473 C 3,20.228969 3.7710323,21 4.7140213,21 h 3.2574729 v -1.285517 c 0,-1.285514 1.028967,-2.314482 2.3144838,-2.314482 1.285516,0 2.314483,1.028968 2.314483,2.314482 V 21 h 3.257472 c 0.94299,0 1.714024,-0.771031 1.714024,-1.714022 v -3.428042 h 1.285514 C 20.057011,15.857936 21,14.914945 21,13.715409 21,12.515871 20.057011,11.572881 18.857471,11.572881"
     id="path20"
     inkscape:connector-curvature="0"
     style="fill:#cccccc;stroke-width:1.38674891" />
</svg>
