<?xml version="1.0" ?>
<svg xmlns="http://www.w3.org/2000/svg" xmlns:xlink="http://www.w3.org/1999/xlink" xmlns:svgjs="http://svgjs.com/svgjs" version="1.1" width="24" height="24" x="0" y="0" viewBox="0 0 128 128" style="enable-background:new 0 0 512 512" xml:space="preserve" class=""><g><path xmlns="http://www.w3.org/2000/svg" d="M15.687,20.722a2.171,2.171,0,0,1-1.551-.646l-3.664-3.691-.924.921a1.685,1.685,0,0,1-1.2.5,1.705,1.705,0,0,1-1.691-1.49L5.687,8.541A2.176,2.176,0,0,1,7.842,6.094a2.135,2.135,0,0,1,.286.019L15.9,7.13a1.7,1.7,0,0,1,.976,2.892l-.928.92L19.6,14.666a2.192,2.192,0,0,1-.02,3.082l-2.351,2.338A2.174,2.174,0,0,1,15.687,20.722Z" fill="#dddddd" data-original="#000000" style="" class="" /><path xmlns="http://www.w3.org/2000/svg" d="M111.993,20.722a2.173,2.173,0,0,1-1.542-.636L108.1,17.748a2.193,2.193,0,0,1-.019-3.082l3.655-3.724-.927-.919a1.7,1.7,0,0,1,.976-2.893l7.768-1.017a2.124,2.124,0,0,1,.286-.019,2.175,2.175,0,0,1,2.154,2.447l-.973,7.773a1.705,1.705,0,0,1-1.691,1.489,1.684,1.684,0,0,1-1.2-.5l-.924-.922-3.664,3.691a2.171,2.171,0,0,1-1.552.646Z" fill="#dddddd" data-original="#000000" style="" class="" /><path xmlns="http://www.w3.org/2000/svg" d="M119.961,122.558a2.316,2.316,0,0,1-.274-.017l-7.773-.975a1.7,1.7,0,0,1-.992-2.886l.921-.924-3.691-3.665a2.185,2.185,0,0,1-.01-3.092l2.338-2.352a2.186,2.186,0,0,1,3.082-.019l3.723,3.655.92-.928a1.683,1.683,0,0,1,1.2-.5,1.706,1.706,0,0,1,1.689,1.48l1.017,7.768a2.176,2.176,0,0,1-2.153,2.458Z" fill="#dddddd" data-original="#000000" style="" class="" /><path xmlns="http://www.w3.org/2000/svg" d="M7.72,122.558A2.176,2.176,0,0,1,5.566,120.1l1.018-7.768a1.7,1.7,0,0,1,1.688-1.479,1.685,1.685,0,0,1,1.2.5l.92.928,3.723-3.655a2.185,2.185,0,0,1,3.081.019L19.539,111a2.185,2.185,0,0,1-.011,3.093l-3.69,3.664.921.924a1.7,1.7,0,0,1-.992,2.886l-7.774.975A2.3,2.3,0,0,1,7.72,122.558Z" fill="#dddddd" data-original="#000000" style="" class="" /><path xmlns="http://www.w3.org/2000/svg" d="M45.434,48.649,62.7,57.391a2.891,2.891,0,0,0,2.6,0l49.475-25.042a4.3,4.3,0,0,0-.624-.409L96.56,22.67,46.13,48.2A4.379,4.379,0,0,0,45.434,48.649Z" fill="#dddddd" data-original="#000000" style="" class="" /><path xmlns="http://www.w3.org/2000/svg" d="M29.825,40.749a4.3,4.3,0,0,1,.7-.449L81.27,14.61,66.04,6.59a4.335,4.335,0,0,0-4.08,0L13.85,31.94a4.23,4.23,0,0,0-.623.408Z" fill="#dddddd" data-original="#000000" style="" class="" /><path xmlns="http://www.w3.org/2000/svg" d="M66.654,60.067A5.824,5.824,0,0,1,65.5,60.5v61.151a4.529,4.529,0,0,0,.54-.239l48.11-25.35a4.362,4.362,0,0,0,2.33-3.86V35.8a4.349,4.349,0,0,0-.1-.9Z" fill="#dddddd" data-original="#000000" style="" class="" /><path xmlns="http://www.w3.org/2000/svg" d="M62.5,60.5a5.825,5.825,0,0,1-1.15-.43L43.834,51.2a4.322,4.322,0,0,0-.1.9V74.72a2.189,2.189,0,0,1-3.77,1.51l-4.33-4.52a2.16,2.16,0,0,0-2.03-.62l-2.83.61a2.186,2.186,0,0,1-2.64-2.14V44.2a4.439,4.439,0,0,1,.1-.9L11.624,34.9a4.359,4.359,0,0,0-.1.9V92.2a4.362,4.362,0,0,0,2.33,3.86l48.11,25.35a4.529,4.529,0,0,0,.54.239Z" fill="#dddddd" data-original="#000000" style="" class="" /></g></svg>
