<?xml version="1.0" ?>
<svg xmlns="http://www.w3.org/2000/svg" xmlns:xlink="http://www.w3.org/1999/xlink" xmlns:svgjs="http://svgjs.com/svgjs" version="1.1" width="24" height="24" x="0" y="0" viewBox="0 0 25 25" style="enable-background:new 0 0 512 512" xml:space="preserve" class=""><g><g xmlns="http://www.w3.org/2000/svg"><path d="m22.8 4.1c0-2.1-1.7-3.8-3.8-3.8h-13c-2.1 0-3.8 1.7-3.8 3.8v13c0 1.7 1.1 3.1 2.5 3.6v3c0 .8.9 1.3 1.6.8l4.8-3.5h7.9c2.1 0 3.8-1.7 3.8-3.8zm-4.1 6.8c0 .5-.4.9-.9.9h-.1c-.4 0-.7.2-.8.5-.1.3-.1.7.2 1l.1.1c.3.3.3.9 0 1.2l-.6.6c-.3.3-.9.3-1.2 0l-.1-.1c-.2-.2-.6-.3-.9-.2 0 0 0 0-.1 0-.3.1-.5.4-.5.8v.1c0 .5-.4.8-.8.8h-.8c-.5 0-.9-.4-.9-.8v-.1c0-.3-.2-.7-.5-.8 0 0 0 0-.1 0-.3-.1-.7-.1-.9.2l-.1.1c-.3.3-.9.3-1.2 0l-.6-.6c-.3-.3-.3-.9 0-1.2l.1-.1c.2-.3.3-.6.2-1-.1-.3-.5-.5-.8-.5h-.2c-.5 0-.9-.4-.9-.9v-.8c0-.5.4-.9.9-.9h.1c.4 0 .7-.2.8-.6.1-.3.1-.7-.2-1l-.1.1c-.3-.3-.3-.9 0-1.2l.6-.6c.3-.3.9-.3 1.2 0l.1.1c.2.2.6.3.9.2h.1c.3-.2.5-.6.5-.9v-.1c0-.5.4-.9.9-.9h.8c.5 0 .8.4.8.9v.1c0 .3.2.7.5.8h.1c.3.1.7.1.9-.2l.1-.1c.3-.3.9-.3 1.2 0l.6.6c.3.3.3.9 0 1.2l-.1.1c-.3.3-.3.6-.2 1 .1.3.5.6.8.6h.1c.5 0 .9.4.9.9v.7z" fill="#dddddd" data-original="#000000" style="" class="" /><path d="m12.5 8.1c-1.3 0-2.4 1.1-2.4 2.4s1.1 2.4 2.4 2.4 2.4-1.1 2.4-2.4-1.1-2.4-2.4-2.4z" fill="#dddddd" data-original="#000000" style="" class="" /></g></g></svg>
